<svg width="228" height="228" viewBox="0 0 228 228" fill="none" xmlns="http://www.w3.org/2000/svg">
    <ellipse cx="114.046" cy="205.06" rx="44.23" ry="13.651" fill="#5A1CD4"/>
    <path d="M199.434 126.037c5.629 4.402 5.761 11.855 1.359 17.476-4.402 5.621-11.661 7.274-17.29 2.865-5.628-4.402-7.049-12.872-2.655-18.485 4.402-5.621 12.958-6.258 18.586-1.856zM27.317 126.037c-5.628 4.402-5.76 11.855-1.359 17.476 4.402 5.621 11.661 7.274 17.29 2.865 5.628-4.402 7.049-12.872 2.655-18.485-4.402-5.621-12.957-6.258-18.586-1.856z" fill="#2FB7FD"/>
    <path d="M177.362 139.546a5.364 5.364 0 0 1-3.214-9.666c3.02-2.251 5.403-5.341 6.886-8.928a5.362 5.362 0 0 1 7.01-2.903 5.362 5.362 0 0 1 2.904 7.01c-2.228 5.38-5.815 10.023-10.395 13.431a5.373 5.373 0 0 1-3.207 1.064l.016-.008zM49.388 139.546a5.366 5.366 0 0 0 3.214-9.666c-3.02-2.251-5.403-5.341-6.886-8.928a5.362 5.362 0 0 0-7.01-2.903 5.362 5.362 0 0 0-2.904 7.01c2.228 5.38 5.815 10.023 10.395 13.431a5.37 5.37 0 0 0 3.207 1.064l-.016-.008z" fill="#1169EF"/>
    <path d="M113.375 149.965c-55.672 0-76.493-26.761-76.354-60.711.148-35.689 33.212-67.123 76.354-67.123 43.142 0 76.214 31.434 76.354 67.123.14 33.95-21.846 60.711-76.354 60.711z" fill="#2FB7FD"/>
    <path d="M113.374 183.892c4.224-.147 14.666 0 19.797-2.849 3.168-1.754 6.258-4.93 5.815-9.821-.365-4.076-.9-6.304-1.234-8.905-.544-4.301-1.918-10.201-3.416-12.794 0 0-3.144-8.035-20.962-8.035-17.825 0-20.961 8.035-20.961 8.035-1.506 2.585-2.873 8.493-3.416 12.794-.326 2.601-.862 4.829-1.234 8.905-.443 4.891 2.655 8.074 5.814 9.821 5.14 2.849 15.582 2.702 19.797 2.849z" fill="#2FB7FD"/>
    <path d="M111.279 180.336c.132 2.733.147 3.556.147 3.556v10.449c-.458 11.265-11.761 10.365-11.761 10.365-10.318 0-11.692-8.066-11.87-10.085-.047-.528-.102-1.064-.156-1.592-.543-5.403-.528-10.853-.287-15.627 0 0 1.444-5.442 11.956-4.697 0 0 11.653 1.063 11.963 7.631h.008zM115.464 180.335c-.132 2.733-.148 3.556-.148 3.556v10.449c.458 11.265 11.762 10.365 11.762 10.365 10.318 0 11.692-8.067 11.87-10.085.047-.528.101-1.064.156-1.592.543-5.403.085-16.503-.156-21.278 0 0-1.001.208-11.513.954 0 0-11.653 1.063-11.963 7.631h-.008z" fill="#2FB7FD"/>
    <path d="M113.375 69.371s15.193-14.564 36.333-5.132c4.635 2.066 9.588 7.205 11.855 11.575 6.91 13.315 3.866 31.148-5.955 42.164-3.811 4.27-8.415 7.795-13.392 10.605-7.157 4.053-19.975 8.889-28.849 8.889-8.873 0-21.69-4.836-28.849-8.889-4.976-2.818-9.58-6.335-13.392-10.605-9.82-11.016-12.864-28.85-5.955-42.163 2.267-4.371 7.228-9.51 11.855-11.576 21.14-9.432 36.334 5.132 36.334 5.132" fill="#fff"/>
    <path d="M98.03 134.461c-5.112-1.703-9.995-3.884-13.513-5.875-4.976-2.818-9.58-6.335-13.392-10.605-3.816-4.282-6.61-9.592-8.192-15.267a26.355 26.355 0 0 1 9.644-1.816c14.595 0 26.427 11.832 26.427 26.427 0 2.473-.34 4.866-.975 7.136zM163.802 102.708c-1.583 5.677-4.376 10.99-8.194 15.273-3.812 4.27-8.416 7.794-13.392 10.605-3.514 1.989-8.392 4.168-13.498 5.87a26.455 26.455 0 0 1-.974-7.131c0-14.595 11.832-26.427 26.427-26.427 3.399 0 6.647.642 9.631 1.81z" fill="#FDC7C6"/>
    <path d="M113.375 115.471a8.215 8.215 0 1 0-.001-16.43 8.215 8.215 0 0 0 .001 16.43z" fill="#FF7B0A"/>
    <path d="M113.375 109.703a2.445 2.445 0 1 0 .002-4.89 2.445 2.445 0 0 0-.002 4.89z" fill="#412007"/>
    <path d="M101.559 93.043a4.503 4.503 0 1 0 0 9.006 4.503 4.503 0 0 0 0-9.006zM125.19 93.043a4.502 4.502 0 0 0 0 9.006 4.503 4.503 0 1 0 0-9.006z" fill="#000"/>
    <path d="M160.41 162.826s-5.362 8.532-15.904 8.853a14.788 14.788 0 0 1-7.771-1.941c-3.647-2.061-8.61-7.389-7.848-12.509l9.165-8.29 22.358 13.887z" fill="#2FB7FD"/>
    <path d="m109.759 164.445 2.096-.953 5.761-2.608 2.105-.952 5.752-2.617 2.105-.953 5.761-2.607 2.096-.953 5.761-2.608 2.096-.953 5.761-2.616 2.105-.952 4.461-2.019-2.841-6.705-4.557 1.794-2.148.849-5.882 2.321-2.148.849-5.873 2.322-2.149.849-5.882 2.321-2.148.849-5.882 2.322-2.14.84-5.882 2.322-2.148.849-8.94 3.534 4.002 9.451 8.758-3.976z" fill="#86583A"/>
    <path d="M157.274 144.322a1.426 1.426 0 0 1-1.715-.814l.009-.009-3.353-7.9s15.082-9.417 17.083-10.439c.197-.1.396-.204.596-.308 1.519-.795 3.117-1.629 4.87-1.476 1.845.164 4.228 1.247 5.882 5.154 1.655 3.907.78 6.367-.39 7.814-1.109 1.37-2.841 1.942-4.453 2.474-.213.071-.424.14-.631.211-1.768.603-13.845 4.115-17.839 5.276l-.059.017zM109.518 183.34c8.195-3.474 10.135-13.592 6.012-23.312l-.018.009c-4.123-9.72-12.734-15.368-20.929-11.894-4.128 1.749-6.48 3.18-8.429 4.365-1.69 1.027-3.074 1.87-5.05 2.574-3.347 1.192-6.715.98-10.154.763-.486-.03-.973-.061-1.462-.088-3.95-.216-7.286.884-9.426 2.106-8.948 5.102-10.126 16.701-5.362 27.945 4.773 11.244 13.93 18.46 23.814 15.576 2.365-.693 5.475-2.322 8.074-5.31.32-.37.636-.741.952-1.111 2.236-2.623 4.427-5.192 7.615-6.764 1.883-.929 3.453-1.339 5.366-1.839 2.205-.576 4.868-1.271 8.997-3.02z" fill="#C68E67"/>
    <path d="M170.521 121.731c.619-.619.869-1.397.563-1.995-.422-.827-1.745-.995-2.955-.377s-1.849 1.789-1.426 2.616c.331.648 1.217.892 2.168.668l1.077 2.545a.93.93 0 0 0 1.23.494.935.935 0 0 0 .494-1.23l-1.151-2.721zM163.549 125.048c.802-.708 1.126-1.67.723-2.337-.48-.794-1.812-.867-2.975-.164-1.162.704-1.715 1.918-1.235 2.712.321.53 1.021.739 1.797.61l1.566 3.061a.944.944 0 0 0 1.265.406.94.94 0 0 0 .406-1.264l-1.547-3.024zM155.043 130.15l1.565 3.058a.94.94 0 0 0 1.672-.857l-1.546-3.021c.803-.708 1.128-1.671.724-2.338-.48-.794-1.812-.867-2.975-.164-1.162.704-1.715 1.918-1.234 2.712.32.529 1.019.738 1.794.61z" fill="#4D4545"/>
    <path d="M107.732 179.139c8.195-3.474 10.136-13.592 6.012-23.312l-.017.009c-4.124-9.719-12.735-15.368-20.93-11.894-4.128 1.749-6.48 3.18-8.428 4.365-1.69 1.027-3.075 1.87-5.05 2.574-3.349 1.192-6.716.98-10.157.764-.485-.031-.972-.062-1.46-.088-3.95-.217-7.286.883-9.425 2.104-8.949 5.103-10.127 16.702-5.362 27.946 4.773 11.245 13.93 18.461 23.813 15.576 2.365-.693 5.475-2.322 8.074-5.311.32-.369.637-.74.952-1.11 2.236-2.623 4.427-5.192 7.615-6.764 1.884-.929 3.453-1.339 5.366-1.839 2.206-.576 4.869-1.272 8.997-3.02z" fill="#F1B78F"/>
    <path d="m155.04 142.277-2.841-6.705-55.789 22.023 4.011 9.451 54.619-24.769z" fill="#AC7854"/>
    <path d="M93.88 175.568c6.254 0 11.323-5.069 11.323-11.322 0-6.253-5.069-11.322-11.322-11.322-6.254 0-11.322 5.069-11.322 11.322 0 6.253 5.069 11.322 11.322 11.322z" fill="#CD8C65"/>
    <path d="M93.88 172.9a8.655 8.655 0 1 0 0-17.31 8.655 8.655 0 0 0 0 17.31z" fill="#1F1313"/>
    <path d="M156.738 142.96a1.434 1.434 0 0 1-1.75-.814v-.008l-2.85-6.731a1.764 1.764 0 0 1 .693-2.183l.766-.476c4.185-2.6 13.443-8.354 15.035-9.166.197-.1.396-.204.596-.309 1.519-.794 3.117-1.629 4.87-1.475 1.845.164 4.228 1.247 5.882 5.154 1.655 3.907.78 6.367-.39 7.813-1.106 1.365-2.835 1.938-4.439 2.47-.218.072-.434.143-.646.216-1.767.606-13.825 4.305-17.767 5.509z" fill="#F1B78F"/>
    <path d="m71.844 164.911 5.983 14.118a3.78 3.78 0 0 1-2.003 4.951l-.83.351a1.023 1.023 0 0 1-1.34-.542l-8.137-19.197a1.025 1.025 0 0 1 .542-1.341l.83-.351a3.78 3.78 0 0 1 4.951 2.003l.004.008z" fill="#41383B"/>
    <path d="M62.263 151.869c2.027-2.521 4.331-3.492 7.683-4.765 2.824-1.074 5.722-1.571 9.153-2.108l7.099 2.217s-4.106 2.367-4.392 4.344c-.182 1.256.684 2.399 2.096 4.955 3.456 6.254-26.733 1.698-21.648-4.643h.009z" fill="#2FB7FD"/>
    <path d="M65.501 169.495c-7.337-4.704-7.822-14.952-1.334-19.274 4.678-3.119 16.91-.572 19.414 2.798 3.179 4.279 4.417 8.108 1.333 13.305-2.373 4.011-6.61 6.116-10.793 5.891-3.006-.156-6.073-1.083-8.62-2.711v-.009z" fill="#2FB7FD"/>
    <path d="M80.973 152.785s3.196.485 4.66 4.513" stroke="#009BF2" stroke-width="3.032" stroke-miterlimit="10" stroke-linecap="round"/>
    <path d="M159.683 146.913c2.061 2.599 3.309 6.765 1.975 12.595-1.654 7.234-7.441 8.68-13.947 7.364-4.955-1.005-9.2-4.886-10.326-8.654-1.429-4.773-.19-10.144 4.219-13.791 3.396-2.816 8.368-3.595 12.006-2.097 2.946 1.213 4.548 2.651 6.082 4.583h-.009z" fill="#2FB7FD"/>
    <path d="M140.608 163.13c-1.568-1.473-2.712-3.206-3.223-4.912-1.429-4.773-.19-10.144 4.219-13.791 3.396-2.816 8.368-3.595 12.006-2.097" stroke="#009BF2" stroke-width="3.032" stroke-miterlimit="10" stroke-linecap="round"/>
</svg>
